<?xml version="1.0" standalone="no"?>
<!DOCTYPE svg PUBLIC "-//W3C//DTD SVG 20010904//EN"
 "http://www.w3.org/TR/2001/REC-SVG-20010904/DTD/svg10.dtd">
<svg version="1.0" xmlns="http://www.w3.org/2000/svg"
 width="760.000000pt" height="760.000000pt" viewBox="0 0 760.000000 760.000000"
 preserveAspectRatio="xMidYMid meet">

<g transform="translate(0.000000,760.000000) scale(0.100000,-0.100000)"
fill="#000000" stroke="none">
<path d="M166 7128 c-14 -20 -16 -179 -16 -1498 0 -1319 2 -1478 16 -1498 15
-22 18 -22 273 -22 186 0 260 3 269 12 17 17 17 2999 0 3016 -9 9 -83 12 -269
12 -255 0 -258 0 -273 -22z m464 -223 c0 -32 -5 -38 -76 -83 l-77 -50 77 -48
c62 -40 76 -54 76 -74 0 -47 -13 -50 -185 -50 -174 0 -185 3 -185 52 l0 27
112 3 112 3 -57 35 c-36 21 -57 41 -57 52 0 12 23 33 63 58 l62 40 -111 0
c-118 0 -124 2 -124 51 0 18 9 19 185 19 l185 0 0 -35z m0 -370 c0 -36 -19
-55 -92 -88 -16 -6 -28 -15 -28 -18 0 -3 27 -21 60 -38 55 -30 60 -35 60 -66
0 -19 -5 -37 -10 -40 -6 -4 -53 19 -106 49 -90 53 -99 56 -163 56 -74 0 -91
10 -91 52 l0 28 83 0 c79 0 85 2 172 50 50 27 96 50 103 50 7 0 12 -14 12 -35z
m-12 -442 l-3 -38 -142 -3 -142 -3 -3 -72 -3 -72 -32 -3 -33 -3 0 109 c0 60 3
112 7 115 3 4 85 7 180 7 l174 0 -3 -37z m10 -255 l-3 -33 -174 -3 c-185 -3
-191 -1 -191 46 l0 22 186 0 185 0 -3 -32z m0 -125 c-3 -37 -6 -40 -110 -98
l-108 -60 111 -3 110 -3 -3 -32 -3 -32 -174 -3 c-187 -3 -191 -2 -191 48 0 21
15 33 102 80 l102 55 -90 5 c-49 3 -95 9 -101 13 -7 5 -13 21 -13 38 l0 29
186 0 185 0 -3 -37z m-92 -282 c64 -29 89 -72 89 -154 0 -56 -4 -71 -19 -82
-17 -13 -41 -9 -64 10 -1 1 2 15 8 31 18 45 4 92 -33 114 -38 24 -106 26 -146
5 -32 -16 -41 -33 -41 -76 0 -27 3 -29 35 -29 32 0 35 2 35 30 0 27 3 30 30
30 l30 0 0 -65 0 -65 -90 0 c-105 0 -110 5 -110 95 0 90 38 151 105 168 47 12
132 6 171 -12z m89 -321 l0 -35 -62 -5 -61 -5 64 -44 c57 -40 64 -48 64 -78 0
-20 -6 -36 -14 -39 -8 -3 -47 17 -87 46 -40 28 -79 48 -85 46 -7 -3 -44 -28
-82 -55 -87 -63 -102 -65 -102 -11 0 38 3 42 72 87 l71 48 -64 3 c-68 3 -79
11 -79 55 l0 27 183 -2 182 -3 0 -35z m3 -354 c3 -108 -5 -129 -47 -124 -25 3
-26 6 -29 76 l-3 72 -29 0 c-30 0 -30 0 -30 -58 0 -63 -11 -82 -47 -82 -22 0
-23 4 -23 70 l0 70 -45 0 -45 0 0 -75 0 -75 -35 0 -35 0 0 108 c0 60 3 112 7
116 4 3 86 5 182 4 l176 -3 3 -99z m0 -198 l-3 -33 -133 -5 c-117 -4 -135 -7
-148 -24 -18 -25 -18 -47 0 -72 13 -17 30 -19 151 -22 l136 -4 -3 -31 -3 -32
-148 -3 -148 -3 -35 35 c-31 31 -34 39 -34 96 0 57 3 65 34 96 l34 34 152 0
151 0 -3 -32z"/>
<path d="M945 7136 c-40 -18 -73 -56 -85 -97 -6 -21 -10 -549 -10 -1424 0
-1349 1 -1391 20 -1432 21 -48 64 -79 122 -88 55 -10 47 -30 -17 -44 -65 -15
-109 -54 -125 -109 -5 -20 -10 -109 -10 -198 0 -179 12 -239 61 -311 l29 -42
-20 -34 c-54 -92 -85 -459 -59 -695 20 -181 78 -311 184 -411 93 -86 324 -215
470 -260 39 -12 87 -29 107 -38 l38 -16 -59 -62 c-77 -83 -123 -161 -162 -276
-30 -87 -33 -104 -33 -224 0 -96 4 -147 17 -195 41 -145 131 -277 246 -360 35
-25 97 -73 138 -107 167 -137 402 -222 701 -254 168 -17 506 -7 652 21 297 55
525 173 646 333 59 78 89 142 115 248 18 70 21 102 16 204 -6 127 -22 196 -71
296 -40 82 -119 182 -186 236 -32 26 -59 50 -59 53 -1 3 24 18 54 34 103 54
171 152 199 289 13 64 16 165 16 619 l1 543 37 -111 c23 -68 49 -126 69 -150
39 -49 115 -92 179 -101 27 -3 68 -19 92 -34 l43 -27 -98 -31 c-77 -23 -106
-38 -132 -65 -55 -57 -54 -97 12 -312 63 -207 80 -245 134 -295 49 -47 90 -68
150 -76 27 -3 66 -18 89 -34 54 -37 122 -53 192 -46 31 3 289 76 572 162 283
87 519 158 524 159 5 0 19 -31 31 -69 12 -39 27 -80 34 -93 6 -12 9 -22 6 -22
-2 0 -397 -120 -877 -266 -627 -190 -882 -272 -905 -290 -43 -33 -57 -60 -56
-114 0 -48 90 -356 124 -427 40 -82 149 -153 235 -153 17 0 37 -7 45 -16 26
-32 93 -57 164 -61 69 -4 98 4 1440 412 1010 308 1379 424 1404 442 36 28 61
76 61 120 0 15 -25 111 -56 213 -79 264 -132 333 -272 358 -34 6 -80 24 -112
44 -50 31 -58 33 -144 33 -50 0 -103 -4 -117 -8 l-26 -8 -6 73 c-6 82 -44 217
-267 953 -83 275 -164 522 -178 549 -45 83 -141 146 -224 146 -16 0 -44 11
-62 25 -75 57 -166 68 -276 35 -36 -11 -68 -20 -71 -20 -3 0 0 23 7 52 11 40
14 159 14 520 l0 468 376 648 c433 744 432 742 440 803 14 101 -48 213 -144
261 -26 13 -72 49 -102 79 -84 84 -109 89 -414 89 -284 0 -306 -5 -365 -76
-18 -22 -101 -164 -184 -316 -84 -152 -155 -279 -158 -283 -4 -3 -44 65 -90
152 -131 251 -175 310 -262 354 -23 12 -62 43 -87 70 -25 26 -67 58 -95 71
-48 22 -60 23 -375 26 -350 4 -384 0 -419 -45 -23 -28 -28 -84 -12 -126 l10
-25 -52 27 c-29 14 -71 47 -95 72 -24 26 -66 57 -95 70 -49 23 -65 24 -282 27
-260 4 -295 -2 -355 -57 -24 -21 -146 -203 -304 -451 -145 -228 -268 -415
-272 -414 -5 0 -108 156 -229 347 -121 190 -231 358 -245 373 -14 15 -45 36
-69 47 -25 11 -70 46 -100 77 -39 41 -68 62 -96 69 -61 17 -602 14 -640 -3z
m962 -748 c201 -318 369 -576 373 -573 4 2 173 263 375 580 l367 575 210 0
c232 0 254 -5 284 -62 16 -30 16 -199 11 -2283 -5 -1509 -10 -2264 -17 -2294
-15 -60 -33 -93 -74 -128 -57 -51 -123 -68 -268 -68 -69 0 -129 2 -132 5 -2 3
-9 894 -13 1980 l-8 1975 -284 -450 c-156 -248 -294 -464 -307 -481 -32 -43
-85 -66 -154 -66 -59 0 -90 10 -126 43 -11 11 -151 230 -310 488 l-289 468 -5
-816 -5 -816 -26 -56 c-48 -101 -113 -128 -331 -136 l-148 -6 0 1352 0 1351
256 -2 256 -3 365 -577z m2625 545 c21 -21 119 -196 273 -487 132 -251 242
-455 245 -455 3 0 124 219 270 487 l266 487 232 3 c193 2 237 0 262 -13 34
-18 48 -56 33 -94 -5 -14 -188 -333 -406 -708 l-396 -683 -3 -502 c-3 -485 -4
-505 -24 -548 -11 -25 -37 -59 -57 -77 -55 -48 -120 -64 -294 -70 l-153 -6 0
598 0 598 -386 721 c-213 397 -395 736 -405 754 l-19 33 265 -3 264 -3 33 -32z
m-283 -862 l351 -654 0 -596 c0 -566 1 -598 20 -638 21 -48 64 -79 122 -88 21
-4 38 -12 38 -19 0 -7 11 -30 25 -51 15 -20 25 -39 23 -40 -2 -2 -206 -65
-453 -140 -248 -76 -458 -141 -467 -147 -17 -8 -18 67 -18 1513 0 837 2 1520
4 1518 3 -3 163 -299 355 -658z m-2300 -971 c49 -77 107 -132 162 -151 14 -6
42 -29 62 -54 108 -128 342 -154 493 -53 35 24 67 60 112 127 l62 94 0 -618 0
-618 -22 21 c-13 11 -42 29 -65 39 -23 11 -62 42 -87 70 -28 30 -66 60 -98 74
-52 24 -57 24 -430 27 l-377 3 36 47 c88 115 93 151 93 652 0 231 2 420 4 420
2 0 27 -36 55 -80z m3914 -1021 c13 -6 31 -24 41 -39 15 -26 228 -715 363
-1175 67 -229 78 -326 45 -392 -37 -72 -107 -118 -233 -153 -122 -33 -106 -50
-180 195 -35 118 -67 215 -71 215 -4 0 -318 -94 -698 -210 -380 -115 -707
-210 -726 -210 -55 0 -86 39 -119 146 -14 49 -37 123 -50 164 -16 53 -20 76
-12 79 7 3 341 104 742 227 473 144 731 227 732 235 2 8 -24 100 -56 204 -51
165 -61 190 -77 187 -11 -2 -314 -93 -674 -203 -360 -109 -668 -199 -685 -199
-37 0 -70 22 -89 58 -16 31 -109 332 -104 337 10 8 1777 543 1800 544 15 0 38
-4 51 -10z m-3355 -217 c50 -29 52 -48 52 -527 l0 -445 -485 0 -485 0 0 -70
c0 -164 47 -191 365 -212 140 -9 236 -9 430 1 270 13 288 11 324 -35 20 -26
21 -37 19 -178 l-3 -151 -50 -7 c-204 -30 -402 -40 -665 -35 -247 5 -293 9
-454 37 -99 17 -216 43 -260 57 -69 23 -89 35 -136 82 -107 108 -135 203 -135
466 0 157 17 375 31 397 3 5 237 8 520 8 l514 0 0 125 0 125 -490 0 c-545 0
-538 -1 -566 65 -10 24 -14 76 -14 175 l0 141 733 -3 c587 -2 737 -6 755 -16z
m4424 -1579 c18 -20 40 -73 72 -176 25 -82 46 -155 46 -162 0 -7 -15 -18 -32
-24 -358 -113 -2643 -801 -2662 -801 -39 0 -80 24 -95 57 -20 43 -102 316 -96
321 2 3 600 186 1327 408 873 266 1339 403 1369 403 37 1 50 -4 71 -26z
m-4082 -268 c447 -64 721 -309 721 -645 1 -301 -198 -490 -602 -572 -103 -21
-141 -23 -394 -23 -308 0 -386 9 -559 66 -334 108 -494 346 -431 644 55 261
297 454 654 521 179 34 411 37 611 9z"/>
<path d="M2391 1628 c-124 -17 -245 -73 -286 -131 -28 -40 -38 -96 -24 -144
34 -124 235 -184 564 -170 296 13 425 77 425 211 0 120 -99 195 -307 231 -93
16 -270 18 -372 3z"/>
</g>
</svg>
